<?xml version="1.0" standalone="no"?>
<!DOCTYPE svg PUBLIC "-//W3C//DTD SVG 20010904//EN"
 "http://www.w3.org/TR/2001/REC-SVG-20010904/DTD/svg10.dtd">
<svg version="1.0" xmlns="http://www.w3.org/2000/svg"
 width="640.000000pt" height="427.000000pt" viewBox="0 0 640.000000 427.000000"
 preserveAspectRatio="xMidYMid meet">

<g transform="translate(0.000000,427.000000) scale(0.100000,-0.100000)"
fill="#000000" stroke="none">
<path d="M698 4257 c-16 -6 -28 -16 -28 -21 0 -28 -57 -119 -85 -136 -34 -21
-90 -27 -100 -10 -3 6 -21 10 -38 10 -25 0 -29 3 -17 10 18 13 -63 6 -83 -7
-6 -4 -14 -8 -17 -9 -15 -3 -47 -19 -60 -29 -8 -7 -28 -15 -44 -19 -23 -6 -27
-11 -23 -31 2 -14 0 -25 -4 -25 -5 0 -9 -9 -9 -19 0 -11 -5 -21 -10 -23 -9 -3
22 -72 63 -143 19 -33 77 -91 77 -77 0 6 10 12 23 11 12 0 16 -3 9 -6 -17 -7
-5 -23 18 -23 32 0 32 -17 0 -48 -21 -21 -36 -29 -51 -25 -16 4 -17 8 -7 14 9
6 9 9 1 9 -15 0 -28 -20 -28 -45 0 -22 56 -83 96 -103 41 -22 77 -59 100 -105
12 -23 22 -43 24 -45 1 -1 34 5 74 14 46 10 84 26 104 43 17 14 60 46 96 71
47 32 67 52 69 70 7 58 116 289 168 357 13 17 24 35 24 38 0 33 228 255 262
255 5 0 8 8 6 17 -5 28 -120 41 -363 41 -134 0 -231 -4 -247 -11z m-278 -537
c0 -5 -4 -10 -10 -10 -5 0 -10 5 -10 10 0 6 5 10 10 10 6 0 10 -4 10 -10z"/>
<path d="M2360 4266 c0 -3 26 -19 58 -36 80 -42 182 -137 231 -214 55 -88 60
-110 26 -132 -17 -11 -29 -14 -33 -7 -9 13 -82 22 -82 10 0 -4 -4 -6 -8 -3 -5
3 -35 -4 -66 -15 -53 -20 -67 -20 -179 -11 -121 10 -167 11 -167 4 0 -1 42
-44 93 -95 83 -81 100 -105 147 -199 51 -104 53 -108 53 -195 0 -48 -3 -100
-7 -115 -7 -22 -4 -29 20 -44 22 -15 49 -19 129 -20 56 -1 111 -6 123 -13 26
-14 53 -3 76 30 9 13 29 23 55 26 50 7 75 -11 102 -74 29 -67 34 -67 224 -12
94 26 204 53 245 59 41 6 127 22 191 37 64 14 127 23 141 20 40 -10 154 -152
189 -237 17 -41 42 -96 55 -122 37 -74 33 -109 -20 -155 -25 -22 -63 -45 -86
-53 -49 -16 -52 -20 -36 -42 21 -28 185 -146 221 -158 30 -10 40 -8 92 18 32
17 80 49 106 72 l49 43 -7 53 c-7 60 11 106 65 167 44 51 106 38 154 -32 16
-23 35 -41 43 -41 23 0 210 98 374 196 140 84 348 194 365 194 22 0 79 59 100
104 27 58 42 69 122 96 49 16 158 55 255 92 33 13 34 22 2 60 -14 16 -25 27
-25 23 0 -4 -7 1 -16 9 -33 33 -216 5 -266 -41 -12 -11 -35 -16 -71 -15 -72 2
-88 5 -119 26 -15 10 -33 19 -40 20 -27 5 -113 67 -131 96 -10 16 -26 32 -35
35 -29 10 -90 96 -97 137 -4 21 -11 38 -17 38 -6 0 -8 7 -4 15 3 8 1 15 -4 15
-5 0 -23 13 -40 29 -18 16 -55 41 -83 55 -29 15 -70 37 -92 51 -22 13 -52 27
-67 30 -15 4 -51 20 -80 36 -66 36 -113 37 -183 4 -74 -35 -91 -37 -135 -15
-21 10 -40 17 -43 14 -9 -9 -126 25 -194 56 -41 19 -70 27 -77 21 -22 -17
-124 -28 -193 -19 -80 10 -74 10 -188 5 -126 -6 -181 -23 -233 -71 -13 -11
-27 -20 -30 -19 -4 2 -6 -19 -4 -45 6 -127 2 -155 -33 -217 -34 -61 -82 -113
-122 -134 -36 -18 -121 -13 -162 9 -64 37 -96 114 -107 261 -8 96 3 141 62
263 19 38 34 71 34 73 0 1 -139 3 -310 3 -170 0 -310 -2 -310 -4z m1936 -509
c3 -39 -7 -54 -24 -34 -9 10 -10 41 -3 75 1 2 6 2 12 0 6 -2 13 -20 15 -41z
m-496 -366 c0 -11 -39 -25 -47 -18 -3 3 -2 10 2 16 8 13 45 15 45 2z"/>
<path d="M6139 3642 c-65 -60 -76 -89 -54 -132 23 -44 43 -50 162 -50 164 0
153 -8 153 125 l0 112 -102 -1 -102 -1 -57 -53z"/>
<path d="M1907 3557 c-48 -48 -55 -61 -37 -72 11 -7 60 33 60 49 0 5 7 17 16
27 9 10 14 24 12 30 -3 8 -22 -5 -51 -34z"/>
<path d="M1690 3435 c0 -24 -25 -28 -61 -10 -63 33 -247 3 -339 -55 l-55 -35
234 -7 c129 -4 242 -3 251 2 10 6 31 2 59 -11 24 -10 54 -19 67 -19 25 0 74
19 74 29 -1 13 -79 60 -149 90 -85 36 -81 35 -81 16z"/>
<path d="M2260 3361 c0 -11 5 -23 10 -26 6 -3 10 3 10 14 0 11 -4 23 -10 26
-5 3 -10 -3 -10 -14z"/>
<path d="M2277 3284 c-3 -15 1 -41 8 -58 20 -47 -9 -169 -45 -191 -6 -4 -19
-24 -30 -46 -26 -50 -40 -50 -40 0 0 23 -7 46 -17 56 -15 15 -17 14 -36 -19
-15 -25 -28 -36 -44 -36 -13 0 -31 -12 -45 -31 -13 -16 -39 -40 -58 -51 -19
-12 -50 -35 -68 -52 -32 -30 -32 -30 -46 -10 -12 16 -34 22 -123 33 -59 7
-148 18 -198 26 -127 18 -337 19 -404 1 -36 -10 -60 -12 -72 -6 -32 18 -74 11
-122 -20 -49 -31 -55 -46 -35 -83 15 -29 78 -87 95 -87 7 0 29 -10 50 -21 66
-37 78 -39 116 -19 23 13 37 15 39 8 6 -16 62 16 83 48 13 20 14 28 5 34 -12
7 34 20 75 20 12 0 37 8 56 18 44 22 209 20 242 -3 12 -8 28 -15 37 -15 25 0
113 -50 146 -84 16 -17 58 -53 93 -79 46 -36 61 -53 56 -65 -4 -10 -10 -51
-14 -92 -5 -42 -18 -98 -30 -125 -20 -44 -21 -55 -10 -87 9 -27 9 -48 1 -80
-11 -44 -7 -74 21 -158 9 -25 19 -58 24 -75 6 -21 15 -29 28 -28 11 1 24 -5
28 -13 4 -8 16 -14 26 -14 25 0 51 -32 51 -61 0 -13 -18 -46 -40 -74 -62 -78
-50 -113 50 -148 38 -13 69 -36 118 -86 47 -47 98 -84 172 -126 58 -32 164
-93 235 -135 177 -105 553 -296 621 -316 30 -8 86 -17 125 -19 39 -2 73 -6 75
-8 2 -2 6 -50 10 -107 3 -58 9 -110 12 -116 4 -7 37 -37 74 -67 122 -100 269
-131 613 -129 127 0 248 2 270 4 43 3 42 5 44 -62 1 -52 14 -62 147 -116 290
-117 471 -144 779 -114 146 14 194 31 255 89 49 47 52 52 57 110 4 45 2 61 -7
61 -6 0 -14 -8 -17 -18 -5 -22 -53 -52 -80 -52 -10 0 -24 -5 -30 -11 -6 -6
-24 -13 -39 -15 -16 -2 -46 -6 -66 -10 -21 -3 -46 -3 -55 2 -26 11 -94 14 -87
3 3 -5 0 -9 -5 -9 -6 0 -11 6 -11 13 0 9 -3 8 -9 -2 -5 -7 -14 -10 -20 -7 -6
4 -24 -7 -39 -24 -30 -33 -48 -33 -87 0 -11 9 -46 25 -77 34 -32 10 -58 22
-58 26 0 4 -10 6 -22 2 -22 -5 -23 -5 -5 15 15 18 16 21 3 26 -9 4 -18 2 -21
-3 -4 -6 -11 -10 -17 -10 -7 0 -6 6 2 15 12 14 0 22 -13 9 -9 -10 -77 -12 -77
-3 0 4 -17 11 -37 15 -21 4 -49 14 -63 23 -13 9 -26 15 -29 13 -3 -2 -7 2 -9
8 -3 7 5 9 20 5 22 -6 86 11 77 20 -3 2 -21 0 -41 -4 -26 -6 -43 -5 -55 4 -16
12 -15 13 3 18 10 3 35 6 54 6 19 0 49 4 65 9 21 6 47 3 90 -10 33 -10 61 -18
63 -18 1 0 18 0 37 0 23 0 35 -5 35 -14 0 -8 7 -17 16 -20 28 -11 35 -7 24 15
-10 17 -9 20 7 17 10 -2 17 2 16 10 -2 6 0 12 5 13 4 0 16 3 27 6 11 3 39 6
61 7 28 0 40 4 37 13 -2 6 5 17 17 23 18 10 21 9 15 -1 -5 -8 -4 -10 3 -5 7 4
12 14 12 22 0 8 4 14 10 14 5 0 8 -14 6 -30 -3 -30 -16 -55 -16 -32 0 7 -5 12
-11 12 -5 0 -7 -5 -3 -11 3 -6 1 -15 -6 -19 -8 -5 1 -8 22 -8 27 0 38 5 45 21
11 23 55 30 81 14 8 -6 14 1 18 21 3 16 11 29 17 29 46 -1 68 23 47 48 -8 10
-8 15 0 20 8 5 5 12 -7 21 -16 12 -14 12 16 2 21 -7 73 -9 141 -5 101 5 116 9
233 57 153 63 165 75 161 155 -1 33 -3 62 -4 65 -1 3 -1 29 0 57 2 58 -5 61
-62 21 -32 -22 -46 -23 -70 -1 -10 9 -20 14 -23 11 -10 -10 7 -38 23 -38 37 0
-10 -23 -91 -44 -48 -12 -90 -25 -93 -29 -4 -4 -48 -7 -98 -7 -100 1 -100 11
0 29 75 14 161 59 179 95 8 15 11 24 6 22 -4 -3 -21 8 -37 25 l-28 30 18 34
c20 37 45 52 57 34 3 -6 12 -10 18 -8 14 5 -46 69 -65 69 -7 0 -14 -4 -14 -9
0 -12 -72 -40 -145 -57 -33 -7 -78 -18 -100 -23 -81 -21 -82 -20 -83 65 0 66
-4 80 -28 116 -34 48 -164 138 -164 113 0 -3 11 -10 25 -15 14 -5 24 -13 23
-17 -2 -5 -1 -8 2 -8 12 -2 70 -40 70 -47 0 -4 -11 -3 -25 2 -13 5 -27 5 -29
1 -3 -5 11 -11 30 -14 52 -9 90 -67 45 -67 -25 0 -36 -16 -16 -24 8 -3 15 0
15 7 0 7 5 4 11 -6 5 -9 7 -22 4 -27 -3 -6 1 -10 9 -10 9 0 16 -7 16 -16 0
-11 -6 -14 -22 -10 l-23 6 23 -11 c27 -15 29 -33 2 -24 -25 8 -25 4 0 -25 22
-25 21 -37 -12 -108 -25 -52 -46 -56 -40 -6 3 24 9 34 17 30 10 -3 13 6 12 35
-2 39 -6 43 -41 39 -11 -1 -15 3 -12 9 4 7 1 9 -8 5 -23 -9 -8 -32 17 -27 18
4 19 3 7 -6 -13 -10 -13 -12 0 -22 13 -9 12 -10 -2 -5 -10 3 -18 2 -18 -2 0
-4 -24 -7 -52 -7 -29 0 -75 -4 -103 -8 -27 -5 -60 -10 -72 -11 -13 -1 -26 -6
-30 -9 -10 -11 -33 -8 -33 4 0 6 7 9 15 5 8 -3 15 -1 15 5 0 6 9 7 22 3 19 -6
21 -4 11 7 -7 8 -29 14 -55 13 -23 -1 -50 3 -60 7 -13 7 -15 5 -11 -11 3 -11
0 -20 -6 -20 -6 0 -11 6 -11 13 0 7 -8 19 -18 27 -49 41 -49 41 -55 26 -4 -9
-1 -13 6 -11 14 5 50 -23 60 -47 7 -20 -10 -35 -25 -20 -11 11 -48 4 -48 -9 0
-5 7 -5 17 -2 11 4 14 3 9 -5 -4 -7 -2 -12 3 -12 6 0 11 -4 11 -10 0 -17 -25
-11 -40 9 -7 11 -17 18 -21 15 -4 -2 -10 0 -14 5 -3 6 -12 8 -21 4 -12 -5 -12
-7 3 -18 10 -7 21 -11 25 -9 5 3 8 0 8 -7 0 -9 -31 -10 -123 -6 -133 7 -187
15 -187 28 0 4 19 10 43 12 35 3 32 4 -18 5 -33 1 -72 8 -87 16 -15 8 -41 17
-60 21 -48 11 -108 52 -108 75 0 10 -4 22 -10 25 -6 4 -7 -1 -3 -11 4 -12 3
-15 -5 -10 -7 4 -12 14 -12 22 0 8 -7 14 -15 14 -9 0 -34 18 -57 40 -38 38
-39 42 -24 59 9 10 16 27 16 39 0 12 5 22 10 22 6 0 10 -5 10 -11 0 -20 29 11
32 34 2 17 11 23 37 25 19 2 37 -2 41 -9 13 -20 32 0 20 21 -13 24 -5 45 23
58 20 10 21 11 2 11 -41 2 10 31 66 38 30 3 59 9 64 13 6 4 50 13 98 19 89 12
173 4 220 -21 10 -5 73 -12 140 -14 89 -3 126 -9 138 -20 12 -10 45 -16 110
-19 52 -2 132 -7 179 -10 82 -5 84 -5 55 11 -52 27 -60 39 -46 71 20 44 32
218 19 272 -20 82 -55 137 -128 203 -75 66 -123 97 -153 98 -11 0 -39 -17 -63
-38 -38 -34 -52 -40 -124 -50 -44 -6 -93 -18 -110 -27 -16 -8 -38 -15 -48 -15
-11 0 -50 -16 -88 -35 -53 -26 -72 -41 -81 -64 -6 -17 -20 -34 -30 -37 -10 -4
-35 -24 -56 -45 -21 -21 -49 -42 -63 -45 -24 -6 -140 25 -196 53 -25 12 -31
11 -63 -9 -19 -13 -35 -31 -35 -40 0 -23 -11 -48 -21 -48 -4 0 -17 10 -28 22
-16 17 -23 19 -35 9 -26 -21 -27 -64 -6 -151 11 -47 20 -112 20 -145 0 -57 2
-62 37 -91 35 -29 37 -33 25 -58 -7 -15 -12 -41 -12 -59 0 -18 -3 -49 -6 -70
l-7 -37 -57 0 c-64 0 -90 7 -90 23 0 5 -22 34 -50 63 -27 29 -50 57 -50 62 0
5 13 27 29 49 17 24 32 61 37 89 4 26 17 71 30 98 12 28 26 74 29 101 4 28 13
68 20 90 7 22 15 86 16 142 4 96 3 103 -20 127 -14 15 -41 50 -61 79 -26 37
-44 53 -63 55 -15 2 -29 11 -32 23 -4 10 -12 19 -20 19 -7 0 -23 14 -35 30
-15 21 -30 30 -48 30 -53 0 -99 21 -144 63 -34 33 -56 46 -89 51 l-44 7 30
-25 c17 -14 24 -25 18 -26 -22 0 -14 -20 8 -20 11 0 34 -12 49 -27 l29 -27
-31 -13 c-26 -11 -33 -11 -40 -1 -6 10 -11 9 -19 -4 -5 -10 -19 -18 -29 -18
-10 0 -22 -4 -25 -10 -3 -5 -15 -10 -26 -10 -22 0 -58 -36 -59 -57 0 -14 -10
-16 -34 -7 -19 7 -21 34 -3 34 20 0 50 37 42 50 -5 8 -21 10 -45 6 -37 -6 -38
-5 -47 31 -8 33 -13 38 -53 48 -28 7 -54 8 -69 3 -18 -7 -27 -4 -37 10 -12 18
-65 24 -90 10 -7 -4 -87 -3 -103 1 -11 3 25 31 40 31 11 0 19 3 19 8 0 4 16
25 36 46 l36 39 -21 17 c-15 10 -20 22 -15 33 9 25 112 24 145 -2 42 -32 122
-63 182 -68 32 -3 60 -10 63 -14 3 -5 9 -9 15 -9 5 0 -1 11 -13 25 -12 14 -26
25 -32 25 -6 0 -41 27 -78 60 -36 33 -88 72 -115 86 -26 14 -70 39 -98 55 -27
16 -62 29 -76 29 -15 0 -33 7 -40 17 -8 9 -33 25 -56 35 -23 10 -48 26 -55 36
-7 9 -39 26 -70 36 -60 20 -65 25 -48 42 18 18 -31 51 -140 94 -58 23 -119 47
-135 55 -17 8 -66 25 -109 39 -100 32 -116 46 -116 106 0 46 -7 67 -40 118
-19 29 -27 28 -33 -4z m373 -563 c0 -5 -12 -16 -26 -26 -33 -22 -59 -4 -28 20
21 16 54 20 54 6z m215 -70 c3 -11 20 -33 37 -50 28 -27 39 -31 89 -31 32 0
61 -4 64 -10 3 -5 15 -10 26 -10 16 0 19 -5 14 -20 -3 -11 -2 -20 3 -20 19 0
0 -37 -28 -53 -26 -16 -29 -16 -53 3 -14 11 -36 19 -49 18 -44 -4 -118 24
-143 54 -14 16 -25 26 -25 21 0 -4 -5 0 -11 10 -5 9 -16 17 -23 17 -24 0 -26
39 -3 64 29 31 93 35 102 7z m143 -313 c17 -17 15 -28 -5 -28 -19 1 -53 22
-53 34 0 11 46 6 58 -6z m219 -55 c66 -34 85 -59 51 -72 -16 -6 -32 -3 -53 9
-27 15 -35 16 -56 4 -31 -17 -39 -17 -39 -1 0 8 -9 22 -20 32 -11 10 -20 26
-20 37 0 29 71 24 137 -9z m51 -111 c3 -9 -2 -13 -14 -10 -9 1 -19 9 -22 16
-3 9 2 13 14 10 9 -1 19 -9 22 -16z m322 -1 c0 -5 -7 -11 -15 -15 -15 -5 -20
5 -8 17 9 10 23 9 23 -2z m-253 -7 c-3 -3 -12 -4 -19 -1 -8 3 -5 6 6 6 11 1
17 -2 13 -5z m38 -14 c3 -5 2 -10 -4 -10 -6 0 -8 -7 -4 -16 3 -8 12 -13 19
-10 10 4 11 -1 5 -17 -5 -13 -22 -26 -40 -31 -18 -5 -30 -14 -28 -20 2 -6 -4
-20 -14 -30 -17 -17 -19 -18 -19 -3 0 9 -4 17 -10 17 -5 0 -10 11 -10 25 0 14
5 25 10 25 14 0 12 28 -2 33 -10 3 -10 8 1 21 10 12 22 15 43 11 17 -4 28 -2
28 4 0 14 17 14 25 1z m275 -71 c0 -6 -4 -7 -10 -4 -5 3 -10 11 -10 16 0 6 5
7 10 4 6 -3 10 -11 10 -16z m-329 -99 c13 0 11 -37 -2 -45 -12 -8 -38 22 -39
44 0 8 6 11 16 7 9 -3 20 -6 25 -6z m1326 -222 c13 -10 7 -38 -9 -38 -18 0
-68 41 -62 52 7 11 52 2 71 -14z m-2078 -202 c17 -9 32 -11 42 -5 26 17 56 9
91 -23 37 -36 82 -63 141 -88 20 -9 44 -25 52 -37 31 -45 110 -80 241 -107 40
-8 89 -23 110 -34 49 -25 173 -62 207 -62 14 0 52 -7 84 -15 31 -8 74 -15 95
-15 20 0 40 -4 43 -10 3 -5 0 -10 -7 -10 -8 0 -20 -6 -26 -12 -7 -7 -18 -13
-25 -14 -7 0 -22 -2 -34 -2 -13 -1 -23 -9 -23 -17 0 -18 -27 -20 -32 -3 -5 15
-28 1 -28 -17 0 -12 14 -14 70 -10 38 3 81 10 96 15 14 6 37 10 52 10 19 0 23
3 13 9 -18 12 4 25 27 16 9 -4 42 -11 72 -15 53 -7 54 -7 22 -15 -29 -7 -42
-27 -17 -26 6 0 13 -9 17 -20 5 -11 17 -19 32 -19 16 0 23 -5 22 -17 0 -11 6
-17 17 -17 9 1 17 -2 17 -7 0 -5 6 -9 14 -9 8 0 18 -5 22 -12 5 -8 0 -9 -15
-5 -30 7 -51 -1 -45 -18 3 -7 0 -15 -8 -18 -7 -2 -2 -2 11 0 13 2 28 -2 33 -9
7 -9 8 -8 4 5 -7 22 3 22 20 0 13 -17 14 -17 8 0 -5 15 0 17 40 16 34 -2 51
-8 68 -26 l23 -24 -28 10 c-37 14 -37 15 -37 -14 0 -16 -6 -25 -16 -25 -8 0
-12 5 -9 10 3 6 -1 10 -10 10 -10 0 -13 -5 -9 -12 12 -19 57 -53 66 -51 5 2 8
-4 8 -13 0 -10 5 -12 13 -7 6 4 35 9 62 10 28 1 78 4 113 6 54 3 65 1 73 -15
6 -12 17 -17 26 -14 11 4 13 2 9 -9 -4 -11 1 -15 20 -15 14 0 22 -4 19 -10 -3
-6 1 -10 9 -10 9 0 16 -4 16 -10 0 -5 -5 -10 -11 -10 -5 0 -7 -5 -4 -10 3 -6
-2 -11 -12 -11 -24 -2 -21 -2 -80 6 -56 7 -70 -4 -30 -22 l22 -11 -25 -11
c-24 -11 -23 -11 7 -5 17 3 34 1 38 -5 6 -11 -22 -15 -77 -11 -16 1 -28 -3
-28 -9 0 -16 -26 -13 -40 4 -6 7 -33 17 -58 20 -99 13 -108 16 -89 30 15 11
15 14 3 18 -9 4 -17 -1 -21 -13 -6 -20 -35 -17 -35 4 0 6 -12 11 -27 12 -25 1
-49 5 -105 16 -10 2 -21 7 -24 11 -4 4 -19 7 -34 7 -29 0 -110 48 -110 66 0
10 -30 20 -77 26 -7 1 -10 5 -8 9 3 4 25 5 50 2 25 -2 45 0 45 5 0 5 12 9 28
10 15 1 40 3 57 5 18 1 30 -3 31 -10 1 -7 2 -20 3 -29 0 -8 6 -12 12 -9 6 4 7
14 4 24 -12 30 -13 61 -1 54 6 -4 4 1 -3 11 -14 16 -16 17 -27 1 -9 -12 -14
-13 -20 -4 -4 7 -2 15 4 17 19 6 14 20 -9 27 -13 4 -27 0 -40 -11 -18 -17 -19
-16 -19 13 0 17 6 36 14 43 8 6 12 18 9 26 -3 8 0 14 7 14 6 0 8 5 5 10 -3 6
-14 10 -24 10 -13 0 -18 -7 -16 -24 4 -30 -32 -43 -55 -20 -13 13 -12 15 8 21
35 9 20 28 -19 25 -40 -5 -62 -20 -55 -39 3 -7 3 -19 0 -27 -7 -18 -52 2 -60
27 -3 9 -10 17 -15 17 -12 0 -11 -7 1 -31 6 -10 7 -19 2 -19 -5 0 -15 14 -22
31 -7 17 -30 42 -52 55 -37 23 -48 47 -29 59 5 3 12 1 16 -5 9 -15 47 -13 43
3 -6 16 -56 21 -74 6 -8 -6 -14 -20 -14 -30 0 -14 -8 -19 -32 -20 -18 -1 -37
0 -43 2 -29 9 -110 -1 -120 -15 -9 -12 -20 -13 -56 -5 -93 21 -370 186 -534
320 -135 109 -177 153 -88 93 21 -14 51 -28 66 -31 15 -3 34 -14 41 -24 13
-19 91 -79 102 -79 3 0 4 10 3 23 -2 12 0 27 4 33 10 16 -33 50 -71 58 -19 3
-46 16 -61 28 -15 13 -42 34 -59 47 -17 13 -29 28 -26 32 7 12 10 11 43 -5z
m1426 -366 c-3 -5 -11 -10 -16 -10 -6 0 -7 5 -4 10 3 6 11 10 16 10 6 0 7 -4
4 -10z m-239 -15 c-22 -17 -46 -20 -46 -6 0 8 21 16 55 19 6 1 1 -5 -9 -13z
m194 5 c0 -15 -67 -29 -97 -20 l-28 7 25 6 c77 19 100 20 100 7z m242 -57 c22
-19 23 -33 4 -33 -8 0 -16 -5 -18 -12 -3 -9 -10 -8 -26 3 -20 14 -20 17 -6 37
18 26 22 27 46 5z m-227 -13 c3 -5 -1 -10 -9 -10 -9 0 -16 5 -16 10 0 6 4 10
9 10 6 0 13 -4 16 -10z m1124 -35 c10 -3 30 -1 44 4 18 7 27 6 30 -2 5 -12 -6
-15 -65 -17 -16 -1 -28 -6 -28 -11 0 -10 -33 -12 -44 -2 -10 11 -36 12 -36 2
0 -5 -4 -9 -10 -9 -24 0 -7 29 23 40 17 6 39 15 47 20 10 5 16 3 18 -6 2 -7
11 -16 21 -19z m196 24 c11 -16 1 -19 -13 -3 -7 8 -8 14 -3 14 5 0 13 -5 16
-11z m35 1 c0 -5 -4 -10 -10 -10 -5 0 -10 5 -10 10 0 6 5 10 10 10 6 0 10 -4
10 -10z m-1291 -41 c-13 -10 -19 -19 -13 -19 7 0 19 -12 29 -26 12 -19 13 -25
3 -22 -7 3 -20 -3 -29 -14 -16 -17 -17 -17 -43 3 -28 22 -35 45 -11 35 20 -7
19 3 -2 26 -9 10 -11 18 -5 18 6 0 14 -5 18 -11 5 -8 10 -6 16 5 5 9 16 16 23
16 8 0 15 5 15 11 0 5 5 7 11 3 8 -4 4 -13 -12 -25z m-117 -11 c-8 -8 -9 -4
-5 13 4 13 8 18 11 10 2 -7 -1 -18 -6 -23z m256 4 c6 -18 -34 -15 -52 4 -22
21 -21 22 16 15 17 -4 33 -12 36 -19z m-88 -6 c0 -3 -4 -8 -10 -11 -5 -3 -10
-1 -10 4 0 6 5 11 10 11 6 0 10 -2 10 -4z m133 -10 c4 -10 1 -13 -9 -9 -15 6
-19 23 -5 23 5 0 11 -7 14 -14z m-638 -101 c11 -12 35 -52 35 -60 0 -2 -7 -2
-16 2 -9 3 -20 0 -25 -8 -7 -11 -10 -9 -15 9 -4 12 -9 22 -13 22 -3 0 -7 16
-9 36 -2 34 -1 35 15 23 10 -8 22 -19 28 -24z m43 6 c3 -8 -1 -12 -9 -9 -7 2
-15 10 -17 17 -3 8 1 12 9 9 7 -2 15 -10 17 -17z m332 9 c0 -5 -4 -10 -10 -10
-5 0 -10 5 -10 10 0 6 5 10 10 10 6 0 10 -4 10 -10z m160 -11 c0 -14 -17 -10
-23 5 -4 10 -1 13 9 9 7 -3 14 -9 14 -14z m-399 -9 c6 0 8 -4 5 -9 -8 -12 -46
-2 -46 11 0 6 7 7 16 4 9 -3 20 -6 25 -6z m49 -30 c0 -5 -4 -10 -10 -10 -5 0
-10 5 -10 10 0 6 5 10 10 10 6 0 10 -4 10 -10z m387 4 c-3 -3 -12 -4 -19 -1
-8 3 -5 6 6 6 11 1 17 -2 13 -5z m-65 -28 c7 4 8 2 4 -5 -9 -13 -26 -5 -25 12
0 9 2 8 6 -1 2 -6 10 -9 15 -6z m-575 -48 c-3 -8 -6 -5 -6 6 -1 11 2 17 5 13
3 -3 4 -12 1 -19z m1905 -68 c11 0 16 -5 13 -11 -4 -6 -13 -8 -21 -5 -8 3 -14
1 -14 -5 0 -6 -9 -8 -20 -4 -12 4 -26 0 -36 -9 -8 -9 -23 -16 -32 -16 -14 1
-14 3 3 12 35 20 47 36 32 42 -6 4 3 4 22 1 18 -3 42 -5 53 -5z m-102 -10 c13
-8 13 -10 -2 -10 -9 0 -20 5 -23 10 -8 13 5 13 25 0z m199 -26 c-13 -16 -49
-19 -49 -3 0 6 9 8 22 4 16 -6 20 -4 15 8 -4 11 -2 14 9 10 11 -4 12 -9 3 -19z
m-882 -8 c0 -8 -6 -12 -14 -9 -7 3 -10 9 -7 14 8 14 21 11 21 -5z m766 -20 c5
-12 -2 -14 -31 -7 -2 1 0 6 3 11 9 14 22 12 28 -4z m-819 -5 c3 -5 -1 -14 -9
-21 -11 -9 -15 -9 -15 -1 0 7 -5 9 -12 5 -9 -5 -9 -2 1 9 15 19 27 22 35 8z
m960 -31 c-6 -5 -24 21 -24 34 0 6 6 1 14 -10 8 -10 12 -21 10 -24z m-34 9 c0
-6 -4 -7 -10 -4 -5 3 -10 11 -10 16 0 6 5 7 10 4 6 -3 10 -11 10 -16z m-56 2
c3 -5 -1 -12 -10 -15 -8 -3 -12 -10 -9 -16 3 -5 1 -10 -4 -10 -12 0 -15 33 -4
43 9 10 21 9 27 -2z m-859 -46 c19 -8 19 -9 -3 -13 -19 -3 -21 -6 -11 -18 6
-8 18 -14 25 -14 8 0 14 -5 14 -11 0 -6 7 -9 15 -5 8 3 15 2 15 -3 0 -14 -45
-22 -49 -9 -2 7 -15 23 -28 36 -16 16 -22 30 -17 44 3 11 9 16 13 11 3 -5 15
-13 26 -18z m412 7 c8 -5 9 -13 3 -22 -7 -10 -10 -11 -10 -2 0 6 -7 12 -15 12
-8 0 -15 5 -15 10 0 12 20 13 37 2z m190 -9 c-14 -14 -19 -15 -29 -4 -11 11
-10 13 5 8 9 -4 17 -2 17 3 0 6 5 10 12 10 8 0 6 -6 -5 -17z m86 10 c-7 -2
-19 -2 -25 0 -7 3 -2 5 12 5 14 0 19 -2 13 -5z m-513 -25 c27 -19 32 -38 10
-38 -10 0 -60 44 -60 54 0 12 21 6 50 -16z m-75 -18 c3 -5 2 -10 -4 -10 -5 0
-13 5 -16 10 -3 6 -2 10 4 10 5 0 13 -4 16 -10z m441 -15 c20 -19 4 -20 -22 0
-12 9 -14 14 -6 15 7 0 20 -7 28 -15z m254 0 c0 -8 -4 -15 -10 -15 -5 0 -7 7
-4 15 4 8 8 15 10 15 2 0 4 -7 4 -15z m-640 -10 c0 -8 -4 -15 -10 -15 -5 0
-10 7 -10 15 0 8 5 15 10 15 6 0 10 -7 10 -15z m-30 -25 c0 -5 -2 -10 -4 -10
-3 0 -8 5 -11 10 -3 6 -1 10 4 10 6 0 11 -4 11 -10z m258 -131 c23 -14 29 -29
13 -29 -6 0 -12 4 -15 9 -3 4 -27 11 -53 15 -73 10 -90 27 -23 23 30 -2 65
-10 78 -18z"/>
<path d="M3135 2270 c-3 -5 1 -10 10 -10 9 0 13 5 10 10 -3 6 -8 10 -10 10 -2
0 -7 -4 -10 -10z"/>
<path d="M3330 1114 c0 -8 5 -12 10 -9 6 3 10 10 10 16 0 5 -4 9 -10 9 -5 0
-10 -7 -10 -16z"/>
<path d="M3468 1083 c7 -3 16 -2 19 1 4 3 -2 6 -13 5 -11 0 -14 -3 -6 -6z"/>
<path d="M3815 1051 c-11 -3 -21 -12 -22 -18 -3 -15 25 -17 47 -3 20 13 1 29
-25 21z"/>
<path d="M3836 952 c-2 -4 4 -9 15 -9 11 -1 17 2 14 8 -7 11 -22 12 -29 1z"/>
<path d="M4010 920 c0 -12 28 -21 35 -11 2 5 -4 11 -15 14 -11 3 -20 2 -20 -3z"/>
<path d="M3875 900 c3 -5 8 -10 11 -10 2 0 4 5 4 10 0 6 -5 10 -11 10 -5 0 -7
-4 -4 -10z"/>
<path d="M3904 879 c-3 -5 -14 -7 -25 -4 -11 4 -19 2 -19 -5 0 -7 20 -9 54 -8
30 2 52 0 50 -4 -7 -11 8 -10 25 1 11 7 11 10 0 17 -20 12 -78 14 -85 3z"/>
<path d="M3874 833 c1 -20 47 -31 135 -32 44 -1 51 1 42 13 -8 10 -28 12 -74
9 -50 -4 -67 -2 -79 11 -21 20 -26 20 -24 -1z"/>
<path d="M3720 831 c0 -5 7 -12 16 -15 27 -10 36 -7 20 9 -16 17 -36 20 -36 6z"/>
<path d="M3865 780 c-3 -5 -1 -10 4 -10 6 0 11 5 11 10 0 6 -2 10 -4 10 -3 0
-8 -4 -11 -10z"/>
<path d="M4056 745 c-9 -26 -7 -32 5 -12 6 10 9 21 6 23 -2 3 -7 -2 -11 -11z"/>
<path d="M3987 732 c3 -7 9 -10 12 -5 3 4 10 11 15 15 4 4 -1 6 -12 5 -12 -1
-18 -6 -15 -15z"/>
<path d="M3965 720 c3 -5 8 -10 11 -10 2 0 4 5 4 10 0 6 -5 10 -11 10 -5 0 -7
-4 -4 -10z"/>
<path d="M5050 1060 c-13 -8 -12 -10 3 -10 9 0 17 5 17 10 0 12 -1 12 -20 0z"/>
<path d="M3329 2975 c-3 -2 -19 -5 -36 -7 -26 -2 -30 -5 -23 -19 12 -21 74
-51 92 -44 7 3 19 14 26 25 10 16 8 21 -10 35 -23 15 -41 19 -49 10z"/>
<path d="M2952 2838 c5 -15 28 -18 29 -3 0 6 -7 12 -17 13 -10 3 -15 -1 -12
-10z"/>
<path d="M200 2770 c0 -6 8 -25 18 -43 10 -19 18 -58 19 -97 1 -36 4 -103 5
-150 2 -47 7 -90 11 -97 4 -6 22 -14 40 -18 17 -4 50 -13 72 -20 102 -35 177
-63 182 -69 4 -3 11 -6 17 -6 15 0 -51 58 -75 65 -10 4 -19 10 -19 15 0 4 -11
18 -25 31 -17 17 -25 35 -25 61 0 20 -7 43 -15 52 -8 8 -15 19 -15 24 0 5 -10
22 -21 37 -16 19 -28 26 -45 22 -19 -3 -25 2 -33 27 -6 17 -10 45 -9 63 1 29
-8 49 -45 96 -16 19 -37 23 -37 7z"/>
<path d="M1083 2534 c-3 -10 4 -23 22 -37 16 -12 47 -38 70 -58 24 -20 60 -47
81 -59 22 -13 41 -27 44 -31 3 -3 20 -14 37 -23 31 -15 35 -15 58 0 40 26 29
44 -40 63 -22 6 -53 25 -70 42 -16 17 -47 42 -68 56 -21 13 -47 33 -57 43 -24
24 -68 26 -77 4z"/>
<path d="M1538 2447 c-33 -26 -22 -62 31 -101 27 -20 53 -36 59 -36 13 0 72
67 72 83 0 19 -65 56 -107 62 -25 3 -44 0 -55 -8z"/>
<path d="M3250 2433 c-53 -8 -70 -14 -70 -23 0 -6 9 -10 20 -10 12 0 33 -6 48
-14 21 -11 40 -12 85 -4 31 6 57 13 57 17 0 4 -19 12 -42 18 -24 7 -50 14 -58
16 -8 2 -26 2 -40 0z"/>
<path d="M3138 2383 c7 -3 16 -2 19 1 4 3 -2 6 -13 5 -11 0 -14 -3 -6 -6z"/>
<path d="M3450 2285 c14 -17 46 -20 54 -6 7 10 -17 21 -46 21 -17 0 -18 -3 -8
-15z"/>
<path d="M3558 2273 c7 -3 16 -2 19 1 4 3 -2 6 -13 5 -11 0 -14 -3 -6 -6z"/>
<path d="M3935 2240 c3 -5 10 -10 16 -10 5 0 9 5 9 10 0 6 -7 10 -16 10 -8 0
-12 -4 -9 -10z"/>
<path d="M763 2192 c-8 -5 10 -20 50 -41 96 -53 122 -81 72 -81 -15 0 -31 -9
-41 -25 -23 -35 -4 -55 48 -55 24 0 65 -12 102 -29 33 -17 99 -41 145 -55 l84
-25 111 115 c61 64 115 123 120 132 4 10 -5 2 -22 -15 -34 -36 -48 -42 -38
-16 6 15 4 14 -14 -2 -11 -10 -18 -25 -16 -32 4 -11 1 -11 -15 -3 -15 8 -29 8
-51 1 -43 -15 -68 -14 -68 4 0 14 -71 55 -95 55 -7 0 -34 11 -60 25 -34 18
-80 30 -158 40 -127 17 -137 18 -154 7z m627 -122 c0 -5 -4 -10 -10 -10 -5 0
-10 5 -10 10 0 6 5 10 10 10 6 0 10 -4 10 -10z"/>
<path d="M4055 2190 c3 -5 13 -10 21 -10 8 0 12 5 9 10 -3 6 -13 10 -21 10 -8
0 -12 -4 -9 -10z"/>
<path d="M4125 2190 c3 -5 8 -10 11 -10 2 0 4 5 4 10 0 6 -5 10 -11 10 -5 0
-7 -4 -4 -10z"/>
<path d="M4159 2174 c-11 -14 -11 -18 1 -28 9 -6 14 -21 12 -33 -4 -30 37 -56
73 -47 l28 7 -22 16 c-14 11 -20 23 -16 33 4 9 1 19 -4 23 -6 3 -9 11 -6 16 4
5 1 9 -4 9 -6 0 -11 -4 -11 -10 0 -5 -4 -10 -9 -10 -5 0 -7 9 -4 20 7 25 -18
27 -38 4z"/>
<path d="M4086 2162 c-3 -3 -1 -11 5 -19 12 -14 59 -18 59 -5 0 10 -57 32 -64
24z"/>
<path d="M4247 2153 c11 -31 15 -34 29 -22 11 9 11 15 3 25 -17 20 -40 18 -32
-3z"/>
<path d="M4383 2133 c-16 -6 -17 -47 -3 -74 21 -39 70 15 55 61 -6 19 -26 24
-52 13z"/>
<path d="M1877 1744 c-4 -4 -7 -14 -7 -23 0 -11 3 -12 11 -4 6 6 10 16 7 23
-2 6 -7 8 -11 4z"/>
<path d="M1170 1565 c0 -8 5 -15 10 -15 6 0 10 7 10 15 0 8 -4 15 -10 15 -5 0
-10 -7 -10 -15z"/>
<path d="M4935 1550 c3 -5 10 -10 16 -10 5 0 9 5 9 10 0 6 -7 10 -16 10 -8 0
-12 -4 -9 -10z"/>
<path d="M1020 1546 c0 -4 7 -14 15 -23 9 -9 13 -23 10 -34 -4 -10 -2 -19 4
-19 9 0 27 39 19 43 -1 1 -13 11 -25 21 -13 11 -23 16 -23 12z"/>
<path d="M1420 1530 c0 -5 5 -10 11 -10 5 0 7 5 4 10 -3 6 -8 10 -11 10 -2 0
-4 -4 -4 -10z"/>
<path d="M1195 1520 c3 -5 8 -10 11 -10 2 0 4 5 4 10 0 6 -5 10 -11 10 -5 0
-7 -4 -4 -10z"/>
<path d="M1385 1500 c-3 -5 -1 -10 4 -10 6 0 11 5 11 10 0 6 -2 10 -4 10 -3 0
-8 -4 -11 -10z"/>
<path d="M5578 1503 c7 -3 16 -2 19 1 4 3 -2 6 -13 5 -11 0 -14 -3 -6 -6z"/>
<path d="M5552 1478 c-19 -19 -14 -30 11 -26 12 2 22 9 22 17 0 19 -18 24 -33
9z"/>
<path d="M5670 1451 c11 -21 53 -53 84 -65 14 -5 17 -13 12 -36 -4 -22 -2 -30
8 -30 8 0 21 -3 30 -6 25 -10 20 30 -9 64 -23 28 -113 92 -129 92 -4 0 -2 -9
4 -19z"/>
<path d="M1510 1410 c-6 -11 -15 -20 -20 -20 -14 0 -75 -44 -110 -79 -17 -17
-40 -31 -50 -31 -10 0 -22 -10 -25 -21 -4 -12 -32 -46 -63 -75 -30 -30 -52
-57 -49 -61 6 -5 45 26 132 106 17 16 55 48 85 73 90 73 132 115 121 122 -5 4
-15 -3 -21 -14z"/>
<path d="M4408 1423 c6 -2 18 -2 25 0 6 3 1 5 -13 5 -14 0 -19 -2 -12 -5z"/>
<path d="M4836 1414 c-4 -10 -1 -14 6 -12 15 5 23 28 10 28 -5 0 -13 -7 -16
-16z"/>
<path d="M979 1408 c-16 -78 -4 -220 32 -360 25 -101 38 -128 61 -128 22 0 24
16 3 24 -12 4 -13 10 -6 25 6 10 7 22 3 26 -4 5 2 5 12 1 16 -5 17 -4 7 8 -7
8 -10 24 -6 36 4 13 1 22 -9 26 -9 3 -16 14 -16 23 0 9 -5 22 -12 29 -9 9 -9
18 0 37 9 20 9 30 0 45 -10 16 -9 22 6 33 11 8 16 19 11 26 -5 9 -12 7 -27 -9
-11 -12 -23 -19 -26 -15 -4 3 -2 9 4 13 15 9 27 49 19 62 -4 7 -13 7 -26 0
-21 -12 -26 -1 -7 18 9 9 8 12 -8 13 -10 0 -13 3 -6 6 6 2 12 11 12 18 0 7 -6
16 -12 18 -10 4 -10 6 0 6 14 1 17 21 2 21 -5 0 -10 -1 -11 -2z"/>
<path d="M5078 1393 c7 -3 16 -2 19 1 4 3 -2 6 -13 5 -11 0 -14 -3 -6 -6z"/>
<path d="M1245 1370 c-10 -11 -13 -20 -7 -20 6 0 16 9 22 20 6 11 9 20 7 20
-2 0 -12 -9 -22 -20z"/>
<path d="M4304 1383 c10 -10 46 -11 40 -1 -3 4 -15 8 -26 8 -12 0 -18 -3 -14
-7z"/>
<path d="M4475 1370 c-4 -6 -1 -10 4 -10 6 0 11 -7 11 -15 0 -17 38 -35 57
-28 20 8 5 23 -22 23 -17 0 -23 4 -19 14 6 16 -22 30 -31 16z"/>
<path d="M5320 1366 c0 -9 30 -14 35 -6 4 6 -3 10 -14 10 -12 0 -21 -2 -21 -4z"/>
<path d="M1020 1342 c0 -5 7 -13 16 -16 10 -4 14 -1 12 6 -5 15 -28 23 -28 10z"/>
<path d="M4786 1341 c-19 -7 -19 -8 2 -13 15 -4 22 -2 22 8 0 8 -1 14 -2 13
-2 0 -12 -4 -22 -8z"/>
<path d="M4658 1333 c6 -2 18 -2 25 0 6 3 1 5 -13 5 -14 0 -19 -2 -12 -5z"/>
<path d="M5170 1336 c0 -2 9 -6 20 -9 11 -3 18 -1 14 4 -5 9 -34 13 -34 5z"/>
<path d="M5263 1326 c-13 -7 -20 -16 -16 -19 12 -13 28 -7 41 13 14 22 7 24
-25 6z"/>
<path d="M4390 1319 c0 -5 21 -9 47 -9 25 0 44 2 42 4 -10 8 -89 13 -89 5z"/>
<path d="M5380 1311 c-7 -15 -7 -21 0 -21 12 0 25 28 17 36 -3 3 -10 -4 -17
-15z"/>
<path d="M4558 1303 c6 -2 18 -2 25 0 6 3 1 5 -13 5 -14 0 -19 -2 -12 -5z"/>
<path d="M4722 1297 c18 -19 48 -23 48 -7 0 6 -6 10 -14 10 -8 0 -23 3 -33 7
-17 6 -17 6 -1 -10z"/>
<path d="M4300 1281 c0 -5 7 -12 16 -15 24 -9 28 -7 14 9 -14 17 -30 20 -30 6z"/>
<path d="M5940 1260 c0 -6 7 -10 15 -10 8 0 15 2 15 4 0 2 -7 6 -15 10 -8 3
-15 1 -15 -4z"/>
<path d="M4770 1251 c0 -5 9 -7 20 -4 11 3 20 7 20 9 0 2 -9 4 -20 4 -11 0
-20 -4 -20 -9z"/>
<path d="M5348 1253 c7 -3 16 -2 19 1 4 3 -2 6 -13 5 -11 0 -14 -3 -6 -6z"/>
<path d="M5385 1240 c3 -6 -3 -10 -14 -10 -12 0 -21 -5 -21 -11 0 -6 -9 -8
-20 -4 -11 3 -28 2 -37 -4 -11 -6 -13 -11 -5 -11 7 0 11 -4 8 -9 -3 -5 1 -12
10 -15 23 -9 27 -8 21 8 -4 10 4 17 26 22 40 8 63 30 41 38 -8 3 -12 2 -9 -4z"/>
<path d="M5952 1220 c-18 -30 -8 -39 40 -33 31 5 39 3 34 -6 -6 -9 1 -12 25
-9 50 4 45 32 -5 36 -21 2 -45 10 -53 18 -19 19 -26 18 -41 -6z"/>
<path d="M4886 1210 c-11 -3 -15 -9 -10 -12 13 -8 113 -2 122 7 4 5 0 6 -10 2
-9 -3 -19 -3 -23 1 -9 9 -56 11 -79 2z"/>
<path d="M5125 1210 c-16 -7 -17 -9 -3 -9 9 -1 20 4 23 9 7 11 7 11 -20 0z"/>
<path d="M5198 1203 c7 -3 16 -2 19 1 4 3 -2 6 -13 5 -11 0 -14 -3 -6 -6z"/>
<path d="M1075 1190 c3 -5 8 -10 11 -10 2 0 4 5 4 10 0 6 -5 10 -11 10 -5 0
-7 -4 -4 -10z"/>
<path d="M4395 1190 c3 -5 14 -10 23 -10 15 0 15 2 2 10 -20 13 -33 13 -25 0z"/>
<path d="M4457 1194 c-11 -12 -8 -21 9 -28 10 -4 13 -2 8 6 -5 8 -2 9 9 5 9
-3 19 -2 22 3 4 6 2 10 -4 10 -5 0 -16 2 -23 5 -8 3 -17 2 -21 -1z"/>
<path d="M4820 1180 c0 -5 -6 -8 -12 -6 -7 1 -10 1 -5 -1 19 -12 3 -22 -33
-20 -22 1 -40 4 -40 7 0 4 -12 7 -28 7 -15 0 -40 3 -55 7 -16 4 -27 2 -27 -4
0 -9 22 -15 44 -11 15 3 35 -20 29 -35 -4 -11 0 -12 25 -3 38 13 108 8 105 -7
-1 -7 6 -10 17 -7 20 5 20 6 -1 24 -12 11 -18 19 -13 19 6 0 10 9 11 20 1 11
-2 20 -8 20 -5 0 -9 -4 -9 -10z"/>
<path d="M5260 1180 c0 -5 5 -10 11 -10 5 0 7 5 4 10 -3 6 -8 10 -11 10 -2 0
-4 -4 -4 -10z"/>
<path d="M6098 1165 c-4 -16 -2 -34 3 -39 16 -17 22 3 12 36 l-9 33 -6 -30z"/>
<path d="M5025 1170 c-3 -5 1 -10 9 -10 9 0 16 5 16 10 0 6 -4 10 -9 10 -6 0
-13 -4 -16 -10z"/>
<path d="M5168 1168 c17 -8 26 -8 34 0 9 9 4 12 -22 11 -33 0 -34 -1 -12 -11z"/>
<path d="M5446 1171 c-4 -7 -5 -15 -2 -18 9 -9 19 4 14 18 -4 11 -6 11 -12 0z"/>
<path d="M1356 1153 c-6 -14 -5 -15 5 -6 7 7 10 15 7 18 -3 3 -9 -2 -12 -12z"/>
<path d="M1060 1125 c0 -8 5 -15 10 -15 6 0 10 7 10 15 0 8 -4 15 -10 15 -5 0
-10 -7 -10 -15z"/>
<path d="M1313 1129 c-12 -4 -27 -17 -33 -28 -6 -12 -17 -21 -25 -21 -8 0 -22
-12 -32 -27 -10 -16 -27 -35 -38 -43 -43 -32 -96 -93 -62 -74 51 30 225 190
216 198 -2 2 -14 0 -26 -5z"/>
<path d="M5915 1130 c4 -6 11 -8 16 -5 14 9 11 15 -7 15 -8 0 -12 -5 -9 -10z"/>
<path d="M4870 1120 c0 -5 5 -10 11 -10 5 0 7 5 4 10 -3 6 -8 10 -11 10 -2 0
-4 -4 -4 -10z"/>
<path d="M4900 1110 c0 -5 5 -10 11 -10 5 0 7 5 4 10 -3 6 -8 10 -11 10 -2 0
-4 -4 -4 -10z"/>
<path d="M4840 1075 c0 -8 4 -15 10 -15 5 0 7 7 4 15 -4 8 -8 15 -10 15 -2 0
-4 -7 -4 -15z"/>
<path d="M4785 1070 c3 -5 8 -10 11 -10 2 0 4 5 4 10 0 6 -5 10 -11 10 -5 0
-7 -4 -4 -10z"/>
<path d="M5598 663 c7 -3 16 -2 19 1 4 3 -2 6 -13 5 -11 0 -14 -3 -6 -6z"/>
<path d="M5658 638 c6 -24 42 -68 42 -52 0 10 -38 74 -44 74 -2 0 -2 -10 2
-22z"/>
<path d="M5570 613 c0 -7 -7 -10 -17 -6 -23 9 -8 -14 19 -28 16 -9 19 -8 13 2
-6 9 -3 11 8 6 10 -3 17 -2 17 2 0 5 10 6 23 3 21 -5 21 -5 4 12 -14 15 -20
16 -33 5 -13 -10 -17 -10 -25 2 -6 9 -9 10 -9 2z"/>
<path d="M5588 553 c-26 -7 -22 -20 10 -31 25 -9 26 -10 7 -18 -11 -4 -23 -12
-27 -18 -4 -6 -25 -10 -47 -9 -22 1 -43 -2 -46 -7 -3 -4 18 -8 45 -8 28 -1 50
3 50 7 0 5 11 12 25 15 14 4 25 10 25 15 0 5 9 7 21 4 16 -4 17 -8 7 -14 -9
-6 -9 -9 -1 -9 6 0 15 5 18 10 9 15 28 12 22 -3 -3 -8 3 -13 14 -13 11 0 19 6
19 13 0 7 -5 13 -11 13 -5 0 -8 4 -5 8 2 4 1 14 -5 22 -6 10 -9 11 -9 3 0 -8
-15 -13 -40 -13 -33 0 -40 3 -38 16 3 19 -8 24 -34 17z"/>
<path d="M5655 540 c27 -12 35 -12 35 0 0 6 -12 10 -27 9 -25 0 -26 -1 -8 -9z"/>
<path d="M4874 522 c5 -8 76 -4 76 4 0 2 -18 4 -41 4 -22 0 -38 -4 -35 -8z"/>
<path d="M4855 500 c-3 -5 6 -12 20 -16 14 -3 25 -10 25 -14 0 -11 49 -19 56
-9 3 5 -1 9 -8 9 -7 0 -30 9 -50 20 -21 11 -40 16 -43 10z"/>
<path d="M4935 500 c3 -5 11 -10 16 -10 6 0 7 5 4 10 -3 6 -11 10 -16 10 -6 0
-7 -4 -4 -10z"/>
<path d="M5355 470 c-3 -5 -2 -10 4 -10 5 0 13 5 16 10 3 6 2 10 -4 10 -5 0
-13 -4 -16 -10z"/>
<path d="M5040 460 c0 -6 7 -10 15 -10 8 0 15 2 15 4 0 2 -7 6 -15 10 -8 3
-15 1 -15 -4z"/>
<path d="M5119 459 c-10 -6 -7 -9 14 -9 29 0 35 5 14 13 -8 3 -20 1 -28 -4z"/>
<path d="M5430 460 c20 -13 43 -13 35 0 -3 6 -16 10 -28 10 -18 0 -19 -2 -7
-10z"/>
<path d="M5663 451 c-7 -11 -18 -19 -25 -18 -41 1 -51 -3 -38 -18 15 -18 57
-11 83 15 15 14 16 19 5 28 -11 8 -17 7 -25 -7z"/>
<path d="M5210 431 c0 -5 -18 -12 -39 -16 -22 -3 -47 -13 -58 -20 -17 -14 -17
-14 2 -15 24 0 125 42 125 53 0 4 -7 7 -15 7 -8 0 -15 -4 -15 -9z"/>
</g>
</svg>
